<svg width="257" height="260" viewBox="0 0 257 260" fill="none" xmlns="http://www.w3.org/2000/svg">
<ellipse cx="164.166" cy="143.901" rx="59.0171" ry="101.48" transform="rotate(21.594 164.166 143.901)" fill="black"/>
<ellipse cx="92.2223" cy="116.077" rx="59.0171" ry="101.48" transform="rotate(21.594 92.2223 116.077)" fill="black"/>
<path d="M120.94 41.5573C129.233 44.8399 135.724 54.8894 137.578 71.7143C139.394 88.1859 136.422 109.292 127.859 130.928C119.295 152.563 107.016 169.986 94.4198 180.753C81.5528 191.751 69.9426 194.636 61.6492 191.354C53.3558 188.071 46.866 178.022 45.0116 161.197C43.1961 144.726 46.1667 123.619 54.7302 101.983C63.2938 80.3475 75.5733 62.9253 88.17 52.1582C101.037 41.1603 112.646 38.2748 120.94 41.5573Z" stroke="white" stroke-width="14"/>
<path d="M195.94 70.5573C204.233 73.8399 210.724 83.8894 212.578 100.714C214.394 117.186 211.422 138.292 202.859 159.928C194.295 181.563 182.016 198.986 169.42 209.753C156.553 220.751 144.943 223.636 136.649 220.354C128.356 217.071 121.866 207.022 120.012 190.197C118.196 173.726 121.167 152.619 129.73 130.983C138.294 109.348 150.573 91.9253 163.17 81.1582C176.037 70.1603 187.646 67.2748 195.94 70.5573Z" stroke="white" stroke-width="14"/>
</svg>
