<svg width="925" height="266" viewBox="0 0 925 266" fill="none" xmlns="http://www.w3.org/2000/svg">
<ellipse cx="164.166" cy="146.901" rx="59.0171" ry="101.48" transform="rotate(21.594 164.166 146.901)" fill="black"/>
<ellipse cx="92.2223" cy="119.077" rx="59.0171" ry="101.48" transform="rotate(21.594 92.2223 119.077)" fill="black"/>
<path d="M120.94 44.5573C129.233 47.8399 135.724 57.8894 137.578 74.7143C139.394 91.1859 136.422 112.292 127.859 133.928C119.295 155.563 107.016 172.986 94.4198 183.753C81.5528 194.751 69.9426 197.636 61.6492 194.354C53.3558 191.071 46.866 181.022 45.0116 164.197C43.1961 147.726 46.1667 126.619 54.7302 104.983C63.2938 83.3475 75.5733 65.9253 88.17 55.1582C101.037 44.1603 112.646 41.2748 120.94 44.5573Z" stroke="white" stroke-width="14"/>
<path d="M195.94 73.5573C204.233 76.8399 210.724 86.8894 212.578 103.714C214.394 120.186 211.422 141.292 202.859 162.928C194.295 184.563 182.016 201.986 169.42 212.753C156.553 223.751 144.943 226.636 136.649 223.354C128.356 220.071 121.866 210.022 120.012 193.197C118.196 176.726 121.167 155.619 129.73 133.983C138.294 112.348 150.573 94.9253 163.17 84.1582C176.037 73.1603 187.646 70.2748 195.94 73.5573Z" stroke="white" stroke-width="14"/>
<path d="M327.25 213H268.109V53H327.172C343.474 53 357.51 56.2031 369.281 62.6094C381.104 68.9635 390.219 78.1302 396.625 90.1094C403.031 102.036 406.234 116.307 406.234 132.922C406.234 149.589 403.031 163.911 396.625 175.891C390.271 187.87 381.182 197.062 369.359 203.469C357.536 209.823 343.5 213 327.25 213ZM306.781 180.031H325.766C334.724 180.031 342.302 178.521 348.5 175.5C354.75 172.427 359.464 167.453 362.641 160.578C365.87 153.651 367.484 144.432 367.484 132.922C367.484 121.411 365.87 112.245 362.641 105.422C359.411 98.5469 354.646 93.599 348.344 90.5781C342.094 87.5052 334.385 85.9687 325.219 85.9687H306.781V180.031ZM453.969 213H412.406L466.391 53H517.875L571.859 213H530.297L492.719 93.3125H491.469L453.969 213ZM448.422 150.031H535.297V179.406H448.422V150.031ZM627.758 53V213H589.086V53H627.758ZM652.035 213V53H690.707V181.594H757.27V213H652.035ZM874.086 53H912.68V156.203C912.68 168.13 909.841 178.521 904.164 187.375C898.487 196.177 890.57 203 880.414 207.844C870.258 212.635 858.461 215.031 845.023 215.031C831.43 215.031 819.555 212.635 809.398 207.844C799.242 203 791.352 196.177 785.727 187.375C780.102 178.521 777.289 168.13 777.289 156.203V53H815.961V152.844C815.961 158.365 817.159 163.286 819.555 167.609C822.003 171.932 825.414 175.318 829.789 177.766C834.164 180.214 839.242 181.438 845.023 181.438C850.805 181.438 855.857 180.214 860.18 177.766C864.555 175.318 867.966 171.932 870.414 167.609C872.862 163.286 874.086 158.365 874.086 152.844V53Z" fill="black"/>
</svg>
